<?xml version="1.0" encoding="UTF-8" standalone="no"?>
<!-- Created with Inkscape (http://www.inkscape.org/) -->

<svg
   xmlns:dc="http://purl.org/dc/elements/1.1/"
   xmlns:cc="http://creativecommons.org/ns#"
   xmlns:rdf="http://www.w3.org/1999/02/22-rdf-syntax-ns#"
   xmlns:svg="http://www.w3.org/2000/svg"
   xmlns="http://www.w3.org/2000/svg"
   xmlns:sodipodi="http://sodipodi.sourceforge.net/DTD/sodipodi-0.dtd"
   xmlns:inkscape="http://www.inkscape.org/namespaces/inkscape"
   width="75.241554mm"
   height="53.292229mm"
   viewBox="0 0 75.241554 53.292229"
   version="1.1"
   id="svg8"
   inkscape:version="0.92.3 (2405546, 2018-03-11)"
   sodipodi:docname="logo.svg">
  <defs
     id="defs2" />
  <sodipodi:namedview
     id="base"
     pagecolor="#ffffff"
     bordercolor="#666666"
     borderopacity="1.0"
     inkscape:pageopacity="0.0"
     inkscape:pageshadow="2"
     inkscape:zoom="1.979899"
     inkscape:cx="109.59791"
     inkscape:cy="114.66672"
     inkscape:document-units="mm"
     inkscape:current-layer="layer1"
     showgrid="false"
     fit-margin-top="0"
     fit-margin-left="0"
     fit-margin-right="0"
     fit-margin-bottom="0"
     inkscape:window-width="1920"
     inkscape:window-height="999"
     inkscape:window-x="0"
     inkscape:window-y="32"
     inkscape:window-maximized="1" />
  <metadata
     id="metadata5">
    <rdf:RDF>
      <cc:Work
         rdf:about="">
        <dc:format>image/svg+xml</dc:format>
        <dc:type
           rdf:resource="http://purl.org/dc/dcmitype/StillImage" />
        <dc:title />
      </cc:Work>
    </rdf:RDF>
  </metadata>
  <g
     inkscape:label="Layer 1"
     inkscape:groupmode="layer"
     id="layer1"
     transform="translate(-67.379225,-0.41120266)">
    <g
       aria-label="Rad"
       style="font-style:normal;font-weight:normal;font-size:4.93888855px;line-height:0;font-family:sans-serif;letter-spacing:0px;word-spacing:0px;fill:#000000;fill-opacity:1;stroke:none;stroke-width:0.26458332"
       id="text847">
      <path
         d="m 67.379225,15.693537 q 0,-0.719667 1.905,-2.878667 1.905,-2.159 2.413,-2.159 1.608667,0 7.027334,0.677333 5.418667,0.677334 6.477,1.016 2.836334,0.804334 2.836334,3.852334 0,1.439333 -0.719667,2.963333 -0.677333,1.481667 -1.524,2.497667 -0.846667,0.973667 -1.566334,1.820334 -0.677333,0.846666 -0.677333,1.058333 0,0.296333 -2.455333,1.905 -2.413001,1.566334 -4.275667,2.54 -1.524,0.846667 -1.524,1.058334 0,0.08467 1.566333,0.635 1.608667,0.508 3.852334,1.397 2.243666,0.889 3.471333,1.735667 1.947334,1.354666 2.370667,1.354666 0.592667,0.04233 1.905,1.439334 1.354667,1.354667 1.354667,1.947333 0,1.058334 -0.762,1.058334 -0.677334,0 -2.159,-0.762 -1.439334,-0.804334 -3.979334,-2.159 -2.54,-1.397001 -4.995334,-2.370667 l -3.302,-1.312334 0.169334,4.953001 q 0.04233,1.100666 0.04233,3.175 0,1.016 -0.211667,1.439333 -0.211666,0.465667 -0.931333,0.465667 -1.608667,0 -1.608667,-5.164667 0,-5.418667 -1.735667,-6.223 -1.27,-0.550334 -1.27,-1.524001 0,-0.889 1.227667,-1.481666 l 1.397,-0.635 -0.338667,-4.826001 q -0.254,-3.852333 -0.550333,-5.334 -0.254,-1.524 -0.719667,-1.524 -0.127,0 -0.508,0.296333 -0.381,0.296334 -0.931333,0.296334 -0.508,0 -0.889,-0.338667 -0.381,-0.338667 -0.381,-0.889 z m 18.161001,0.211667 q 0,-0.169334 -0.127,-0.254 -0.127,-0.127 -0.846667,-0.338667 -0.719667,-0.254 -2.159,-0.677333 -2.878667,-0.804334 -5.842,-0.804334 h -3.048 l 0.296333,2.286 q 0.127,0.846667 0.381,3.598334 0.254,2.709333 0.465667,4.826 0.211666,2.074334 0.296333,2.074334 0.592667,0 3.132667,-1.397001 2.54,-1.397 3.556,-2.328333 1.100667,-0.973667 2.497667,-3.513667 1.397,-2.54 1.397,-3.471333 z"
         style="font-style:normal;font-variant:normal;font-weight:normal;font-stretch:normal;font-size:42.33333588px;font-family:Purisa;-inkscape-font-specification:Purisa;stroke-width:0.26458332"
         id="path885" />
      <path
         d="m 107.24532,20.942871 q -1.94733,0 -4.14867,0.804333 -2.159,0.804333 -3.852329,1.651 -1.693333,0.804333 -2.455333,0.804333 -0.508,0 -0.508,-0.423333 0,-0.592667 0.254,-1.016 0.254,-0.423333 0.931333,-0.804333 0.677334,-0.381 1.27,-0.635 0.635,-0.254 1.989669,-0.719667 1.35466,-0.508 2.32833,-0.931334 2.286,-0.889 3.85234,-0.889 2.794,0 4.36033,3.048001 0.762,1.481666 0.889,2.751666 0.127,1.227667 0.21167,6.985001 0.0423,3.217333 0.127,5.418667 0.0847,2.159 0.16933,2.751667 l 0.0847,0.550333 q 0,0.592667 -0.55034,1.27 -0.508,0.677334 -0.762,0.677334 -0.84666,0 -1.31233,-2.667001 -0.46567,-2.709333 -0.508,-2.709333 -0.127,0 -0.381,0.465667 -0.84667,1.397 -3.429,3.090333 -2.54,1.651 -4.27567,1.651 -1.05833,0 -2.497665,-0.381 -1.397,-0.423333 -2.032,-0.889 -0.465667,-0.381 -0.804334,-1.524 -0.296333,-1.143 -0.296333,-2.328333 0,-1.778001 0.931333,-3.048001 0.973667,-1.312333 3.428999,-2.667 2.667,-1.566333 5.16467,-1.566333 1.016,0 1.69333,0.338666 0.67734,0.338667 1.016,0.719667 0.33867,0.338667 0.55034,0.338667 0.16933,0 0.80433,0.465667 0.635,0.423333 0.67733,0.423333 0.16934,0 0.16934,-0.931334 0,-5.672667 -0.80434,-7.874 -0.762,-2.201333 -2.286,-2.201333 z m 1.905,13.123334 q 0,-0.169334 -0.127,-0.381 -0.0847,-0.254 -0.42333,-0.550334 -0.29633,-0.338666 -0.80433,-0.592666 -0.46567,-0.296334 -1.31234,-0.465667 -0.84666,-0.211667 -1.905,-0.211667 -1.82033,0 -3.21733,0.635 -1.35467,0.635 -2.032002,1.608667 -0.677333,0.973667 -1.016,1.820333 -0.296333,0.804334 -0.296333,1.439334 0,1.058333 0.169333,1.439333 0.211667,0.381 0.973667,0.804334 0.931335,0.465666 1.693335,0.465666 1.43933,0 3.556,-1.016 2.159,-1.058333 2.159,-1.524 0,-0.338666 1.27,-1.608667 1.31233,-1.312333 1.31233,-1.862666 z"
         style="fill:#808000"
         id="path887" />
      <path
         d="m 142.62078,42.448205 q 0,0.931334 -0.381,1.439334 -0.33867,0.550333 -0.635,0.635 -0.254,0.127 -0.46567,0.127 -0.55033,0 -0.93133,-0.381 -0.381,-0.338667 -0.59267,-1.27 -0.21167,-0.889001 -0.29633,-1.354667 -0.0423,-0.465667 -0.16934,-1.735667 -0.29633,-4.275667 -0.67733,-4.275667 -0.46567,0 -1.48167,1.227667 -4.74133,5.588 -9.99067,5.588 -1.56633,0 -3.13266,-0.592667 -5.41867,-2.032 -5.41867,-8.297333 0,-2.709334 0.889,-5.164667 0.93133,-2.497667 2.32833,-4.191001 1.43934,-1.693333 2.87867,-2.836333 1.43933,-1.143 2.75167,-1.608667 1.651,-0.635 2.286,-0.635 1.10067,0 3.683,1.439334 2.62467,1.439333 3.64067,2.794 1.143,1.524 1.73566,1.524 0.0423,0 0.0423,0 0,-0.04233 0.0423,-0.04233 0.46567,-0.296333 0.46567,-11.049 0,-10.6256675 0.508,-12.0650009 0.55033,-1.31233344 1.651,-1.31233344 h 1.143 L 142.15511,17.810204 q -0.127,6.477 -0.127,11.557 0,6.900334 0.29633,9.863668 0.29634,2.963333 0.29634,3.217333 z m -9.906,-18.753668 q -2.49767,-1.651 -3.47134,-1.651 -0.84667,0 -3.81,2.878667 -2.96333,2.878667 -3.51367,4.233334 -0.42333,1.016 -0.42333,3.683 0,3.259667 0.55033,4.233334 0.42334,0.762 2.032,1.651 1.651,0.889 3.25967,0.889 2.87867,0 7.28134,-4.233334 3.47133,-3.344333 3.47133,-4.360334 0,-1.397 -1.778,-3.725333 -1.73567,-2.328334 -3.59833,-3.598334 z"
         style="font-style:normal;font-variant:normal;font-weight:normal;font-stretch:normal;font-size:42.33333588px;font-family:Purisa;-inkscape-font-specification:Purisa;stroke-width:0.26458332"
         id="path889" />
    </g>
    <g
       aria-label="collision"
       style="font-style:normal;font-weight:normal;font-size:4.93888855px;line-height:0;font-family:sans-serif;letter-spacing:0px;word-spacing:0px;fill:#000000;fill-opacity:1;stroke:none;stroke-width:0.26458332"
       id="text851">
      <path
         d="m 77.794901,45.624818 q 0,0.299861 -0.141112,0.493889 -0.123472,0.194028 -0.299861,0.194028 -0.335139,0 -0.423333,-0.511528 -0.03528,-0.405694 -0.582084,-1.023056 -0.229305,-0.246944 -0.370416,-0.352777 -0.141111,-0.105834 -0.670278,-0.229306 -0.511528,-0.123472 -1.358195,-0.123472 -0.687917,0 -1.058333,0.246944 -0.352778,0.246945 -0.881945,1.005417 -1.27,1.799167 -1.27,3.245556 0,0.740833 0.15875,1.252361 0.15875,0.493889 0.299861,0.670278 0.15875,0.15875 0.511528,0.511528 0.511528,0.493889 0.776111,0.635 0.282223,0.123472 0.776111,0.123472 1.534584,0 3.35139,-2.081389 0.9525,-1.058333 1.375833,-1.058333 0.229306,0 0.229306,0.335139 0,0.3175 -0.846667,1.358194 -0.829028,1.040695 -1.42875,1.464028 -1.393472,1.005417 -2.487084,1.005417 -0.79375,0 -1.74625,-0.47625 -0.970139,-0.47625 -1.411111,-1.287639 -0.423334,-0.811389 -0.511528,-2.363612 -0.05292,-0.599722 -0.05292,-0.9525 0,-0.687916 0.47625,-1.569861 0.493889,-0.9525 1.42875,-1.834445 0.952501,-0.881944 1.640417,-1.075972 0.529167,-0.123472 1.146528,-0.123472 1.340556,0 2.345973,0.864305 1.023056,0.846667 1.023056,1.658056 z"
         style="font-style:normal;font-variant:normal;font-weight:normal;font-stretch:normal;font-size:17.63889122px;font-family:Purisa;-inkscape-font-specification:Purisa;stroke-width:0.26458332"
         id="path866" />
      <path
         d="m 81.61124,44.79579 q 1.375834,-1.287639 2.310695,-1.693333 0.9525,-0.423334 2.398889,-0.423334 2.187223,0 2.734028,1.305278 0.335139,0.776112 0.335139,1.905001 0,1.869722 -0.829028,3.792361 -0.829027,1.905 -2.046111,2.645834 -1.181806,0.723194 -2.487084,0.723194 -1.816805,0 -2.910417,-1.252361 -0.758472,-0.881944 -0.987778,-1.481667 -0.229305,-0.617361 -0.229305,-1.74625 0,-2.134306 1.710972,-3.774723 z m 2.839862,7.249585 q 1.481667,0 2.681111,-2.028473 1.217084,-2.046111 1.217084,-4.621389 0,-0.388056 -0.0882,-0.582084 -0.08819,-0.194028 -0.3175,-0.388055 -0.652639,-0.546806 -1.393472,-0.546806 -0.123472,0 -0.282222,0.03528 -0.141112,0.01764 -0.476251,0.07055 -0.335138,0.03528 -0.79375,0.08819 -0.617361,0.08819 -0.987778,0.282222 -0.352777,0.176389 -0.899583,0.687917 -1.040695,0.987778 -1.481667,1.834444 -0.440972,0.829028 -0.440972,1.816806 0,1.464028 0.899583,2.398889 0.917223,0.934862 2.363612,0.952501 z"
         style="font-style:normal;font-variant:normal;font-weight:normal;font-stretch:normal;font-size:17.63889122px;font-family:Purisa;-inkscape-font-specification:Purisa;stroke-width:0.26458332"
         id="path868" />
      <path
         d="m 92.095631,38.622178 q 0,-1.358194 0.07056,-2.06375 0.07056,-0.723194 0.176389,-0.917222 0.105833,-0.194028 0.299861,-0.194028 0.176389,0 0.282222,0.15875 0.105833,0.176389 0.635,8.166807 0.546806,7.990417 0.546806,8.307917 0,0.229306 -0.105833,0.3175 -0.105834,0.07056 -0.352778,0.07056 -0.423334,0 -0.546806,-0.599722 -0.123472,-0.617362 -0.352778,-3.82764 -0.282222,-3.880556 -0.546805,-6.932084 -0.105834,-1.146528 -0.105834,-2.487084 z"
         style="font-style:normal;font-variant:normal;font-weight:normal;font-stretch:normal;font-size:17.63889122px;font-family:Purisa;-inkscape-font-specification:Purisa;stroke-width:0.26458332"
         id="path870" />
      <path
         d="m 97.366629,38.622178 q 0,-1.358194 0.07056,-2.06375 0.07055,-0.723194 0.176389,-0.917222 0.105833,-0.194028 0.299861,-0.194028 0.176389,0 0.282222,0.15875 0.105833,0.176389 0.635,8.166807 0.546806,7.990417 0.546806,8.307917 0,0.229306 -0.105833,0.3175 -0.105834,0.07056 -0.352778,0.07056 -0.423334,0 -0.546806,-0.599722 -0.123472,-0.617362 -0.352778,-3.82764 -0.282222,-3.880556 -0.546805,-6.932084 -0.105834,-1.146528 -0.105834,-2.487084 z"
         style="fill:#ff0000"
         id="path872" />
      <path
         d="m 102.93748,42.661484 q 0.24695,-0.211666 0.42334,-0.211666 0.37041,0 0.52916,1.181805 0.17639,1.164167 0.3175,4.497918 0.0706,1.552222 0.0706,2.804583 0,1.252362 -0.10583,1.375834 -0.21167,0.264583 -0.52917,0.264583 -0.44097,0 -0.54681,-0.370416 -0.0882,-0.229306 -0.26458,-3.563056 -0.17639,-3.35139 -0.17639,-4.656668 0,-1.093611 0.28222,-1.322917 z m -0.10583,-4.145139 q 0,-0.246944 0.19403,-0.493889 0.21167,-0.246944 0.37042,-0.246944 0.17638,0 0.47625,0.246944 0.3175,0.229306 0.3175,0.599722 0,0.264584 -0.15875,0.458612 -0.14112,0.176388 -0.38806,0.176388 -0.28222,0 -0.54681,-0.211666 -0.26458,-0.211667 -0.26458,-0.529167 z"
         style="font-style:normal;font-variant:normal;font-weight:normal;font-stretch:normal;font-size:17.63889122px;font-family:Purisa;-inkscape-font-specification:Purisa;stroke-width:0.26458332"
         id="path874" />
      <path
         d="m 109.01133,48.570513 q -0.26459,0 -1.12889,-0.635 -0.86431,-0.652639 -0.86431,-1.322917 0,-0.635 0.89959,-1.74625 0.89958,-1.128889 2.16958,-1.446389 0.58208,-0.15875 1.53458,-0.15875 0.4057,0 0.59972,0.105833 0.19403,0.105833 0.52917,0.47625 0.54681,0.617361 0.54681,0.846667 0,0.211667 -0.22931,0.211667 -0.28222,0 -0.47625,-0.194028 -0.19403,-0.211667 -0.47625,-0.423334 -0.28222,-0.211666 -0.75847,-0.211666 -0.61736,0 -1.32292,0.335139 -0.70555,0.335139 -1.25236,0.934861 -0.77611,0.829028 -0.77611,1.128889 0,0.299861 0.45861,0.723195 0.45861,0.405694 1.53458,0.776111 1.69334,0.582083 2.29306,1.093611 0.59972,0.511528 0.59972,1.375833 0,0.811389 -0.28222,1.481667 -0.19403,0.511528 -0.82903,1.146528 -0.635,0.635 -1.25236,0.635 -0.47625,0 -1.23472,-0.15875 -0.75847,-0.141111 -1.14653,-0.335139 -0.3175,-0.15875 -0.58208,-0.617361 -0.26459,-0.47625 -0.26459,-0.846667 0,-0.194027 0.0882,-0.335138 0.10583,-0.158751 0.24694,-0.158751 0.26459,0 0.49389,0.493889 0.21167,0.440973 0.84667,0.793751 0.65264,0.352777 1.21708,0.352777 0.75847,0 1.34056,-0.899583 0.58208,-0.917222 0.58208,-1.42875 0,-0.123473 -0.0705,-0.299861 -0.0529,-0.194028 -0.29987,-0.458612 -0.24694,-0.264583 -0.635,-0.405694 -0.37041,-0.123472 -0.8643,-0.335139 -0.49389,-0.211667 -0.82903,-0.352778 -0.3175,-0.141111 -0.40569,-0.141111 z"
         style="font-style:normal;font-variant:normal;font-weight:normal;font-stretch:normal;font-size:17.63889122px;font-family:Purisa;-inkscape-font-specification:Purisa;stroke-width:0.26458332"
         id="path876" />
      <path
         d="m 116.51117,42.661484 q 0.24694,-0.211666 0.42333,-0.211666 0.37042,0 0.52917,1.181805 0.17638,1.164167 0.3175,4.497918 0.0705,1.552222 0.0705,2.804583 0,1.252362 -0.10583,1.375834 -0.21167,0.264583 -0.52917,0.264583 -0.44097,0 -0.5468,-0.370416 -0.0882,-0.229306 -0.26459,-3.563056 -0.17639,-3.35139 -0.17639,-4.656668 0,-1.093611 0.28223,-1.322917 z m -0.10584,-4.145139 q 0,-0.246944 0.19403,-0.493889 0.21167,-0.246944 0.37042,-0.246944 0.17639,0 0.47625,0.246944 0.3175,0.229306 0.3175,0.599722 0,0.264584 -0.15875,0.458612 -0.14111,0.176388 -0.38806,0.176388 -0.28222,0 -0.5468,-0.211666 -0.26459,-0.211667 -0.26459,-0.529167 z"
         style="font-style:normal;font-variant:normal;font-weight:normal;font-stretch:normal;font-size:17.63889122px;font-family:Purisa;-inkscape-font-specification:Purisa;stroke-width:0.26458332"
         id="path878" />
      <path
         d="m 122.09112,44.79579 q 1.37583,-1.287639 2.31069,-1.693333 0.9525,-0.423334 2.39889,-0.423334 2.18723,0 2.73403,1.305278 0.33514,0.776112 0.33514,1.905001 0,1.869722 -0.82903,3.792361 -0.82903,1.905 -2.04611,2.645834 -1.18181,0.723194 -2.48708,0.723194 -1.81681,0 -2.91042,-1.252361 -0.75847,-0.881944 -0.98778,-1.481667 -0.2293,-0.617361 -0.2293,-1.74625 0,-2.134306 1.71097,-3.774723 z m 2.83986,7.249585 q 1.48167,0 2.68111,-2.028473 1.21709,-2.046111 1.21709,-4.621389 0,-0.388056 -0.0882,-0.582084 -0.0882,-0.194028 -0.3175,-0.388055 -0.65264,-0.546806 -1.39347,-0.546806 -0.12347,0 -0.28222,0.03528 -0.14112,0.01764 -0.47625,0.07055 -0.33514,0.03528 -0.79375,0.08819 -0.61737,0.08819 -0.98778,0.282222 -0.35278,0.176389 -0.89959,0.687917 -1.04069,0.987778 -1.48166,1.834444 -0.44097,0.829028 -0.44097,1.816806 0,1.464028 0.89958,2.398889 0.91722,0.934862 2.36361,0.952501 z"
         style="font-style:normal;font-variant:normal;font-weight:normal;font-stretch:normal;font-size:17.63889122px;font-family:Purisa;-inkscape-font-specification:Purisa;stroke-width:0.26458332"
         id="path880" />
      <path
         d="m 133.08704,43.173012 q 0,-0.599722 0.35277,-0.599722 0.22931,0 0.33514,0.529167 0.10584,0.511528 0.38806,3.069167 0.3175,2.769306 0.37042,2.892778 0.0705,-0.07056 0.51152,-1.42875 0.4057,-1.27 0.635,-1.763889 0.24695,-0.511528 0.84667,-1.358195 1.28764,-1.781528 1.9932,-1.781528 0.45861,0 0.8643,0.617361 0.54681,0.811389 0.67028,1.605139 0.12347,0.79375 0.17639,3.757084 0.0353,1.905 0.0353,2.257778 0,0.881945 -0.0706,1.287639 -0.0529,0.388056 -0.17639,0.47625 -0.10583,0.105834 -0.38805,0.123473 -0.15875,0 -0.21167,-0.141112 -0.0529,-0.123472 -0.0529,-0.599722 0,-0.264583 0.0353,-1.128889 0.0353,-0.881944 0.0353,-1.481667 0,-1.499305 -0.12347,-2.928056 -0.10584,-1.446389 -0.26459,-1.852083 -0.0882,-0.229306 -0.28222,-0.47625 -0.19403,-0.246945 -0.37042,-0.246945 -0.37041,0 -1.1818,1.27 -0.81139,1.252362 -1.39348,2.645834 -0.5468,1.340556 -0.74083,2.010834 -0.19403,0.670278 -0.29986,1.781528 -0.19403,1.799167 -0.28222,1.799167 -0.14111,0 -0.4057,-0.299862 -0.19402,-0.194027 -0.26458,-0.829027 -0.0706,-0.652639 -0.19403,-2.55764 -0.12347,-1.922639 -0.33514,-3.880556 -0.21166,-2.028472 -0.21166,-2.769306 z"
         style="font-style:normal;font-variant:normal;font-weight:normal;font-stretch:normal;font-size:17.63889122px;font-family:Purisa;-inkscape-font-specification:Purisa;stroke-width:0.26458332"
         id="path882" />
    </g>
  </g>
</svg>
